<?xml version="1.0" standalone="no"?>
<!DOCTYPE svg PUBLIC "-//W3C//DTD SVG 20010904//EN"
 "http://www.w3.org/TR/2001/REC-SVG-20010904/DTD/svg10.dtd">
<svg version="1.0" xmlns="http://www.w3.org/2000/svg"
 width="640.000000pt" height="640.000000pt" viewBox="0 0 640.000000 640.000000"
 preserveAspectRatio="xMidYMid meet">
<metadata>
Created by potrace 1.11, written by Peter Selinger 2001-2013
</metadata>
<g transform="translate(0.000000,640.000000) scale(0.100000,-0.100000)"
fill="#000000" stroke="none">
<path d="M3100 5160 c-161 -93 -185 -111 -188 -135 -3 -21 -7 -25 -20 -19 -34
14 -52 7 -240 -101 -158 -90 -192 -113 -192 -131 0 -16 -6 -22 -22 -21 -13 1
-107 -47 -210 -107 l-188 -109 0 -43 c0 -49 -1 -50 -33 -30 -21 14 -34 8 -214
-96 l-193 -111 0 -224 c0 -224 2 -239 38 -284 10 -13 8 -18 -13 -27 l-25 -12
0 -225 c0 -226 2 -241 38 -286 10 -13 8 -18 -13 -27 l-25 -12 0 -223 c0 -184
3 -230 16 -255 8 -18 20 -32 25 -32 18 0 9 -17 -16 -28 l-25 -12 0 -223 c0
-176 3 -230 15 -253 10 -22 59 -55 197 -134 101 -58 191 -104 201 -103 11 2
21 -6 26 -20 6 -16 68 -57 196 -131 157 -91 190 -107 208 -99 19 9 24 6 38
-25 14 -30 45 -51 205 -144 163 -94 192 -108 211 -99 21 10 23 8 23 -19 0 -17
5 -30 10 -30 6 0 10 -8 10 -17 0 -13 57 -51 188 -125 103 -60 194 -108 202
-108 8 1 98 49 200 109 l185 107 3 42 c3 40 14 53 27 32 13 -20 44 -7 225 99
184 107 185 107 188 145 2 20 6 36 10 34 4 -2 19 -10 33 -17 26 -13 37 -8 220
96 151 86 195 115 197 132 2 14 9 21 17 17 8 -3 99 44 202 104 l188 109 3 222
c2 183 0 229 -13 255 -8 18 -21 34 -27 36 -8 3 -1 12 15 22 l27 18 0 223 c0
226 -5 264 -41 285 -8 5 -3 13 15 25 l26 17 0 223 c0 226 -5 264 -41 285 -8 5
-3 13 15 25 l26 17 0 223 c0 174 -3 229 -14 250 -11 20 -68 59 -203 136 -178
103 -189 108 -210 93 -22 -14 -23 -14 -23 21 0 19 -4 35 -10 35 -5 0 -10 8
-10 18 0 12 -59 50 -191 126 -164 93 -194 107 -213 98 -20 -9 -24 -6 -38 27
-14 32 -39 49 -202 144 -102 59 -195 107 -206 107 -12 0 -20 7 -20 18 -1 12
-59 50 -189 125 -104 59 -195 107 -202 106 -8 0 -97 -49 -199 -109z"/>
</g>
</svg>
